<svg width="76" height="80" viewBox="0 0 76 80" fill="none" xmlns="http://www.w3.org/2000/svg">
<path d="M47.7497 71.4364C47.5634 71.6335 47.2693 72.2032 46.8239 72.3729C44.7483 73.1606 42.6395 73.8658 40.5231 74.5378C39.7127 74.7957 38.9685 74.3028 38.7765 73.5388C38.5959 72.8222 38.9959 72.1084 39.7666 71.8411C41.8092 71.1321 43.8508 70.424 45.9038 69.7473C46.8882 69.4221 47.7781 70.0932 47.7497 71.4364Z" fill="#144438"/>
<path d="M66.6493 39.819C66.6531 39.1573 66.6587 38.4948 66.6587 37.8332C66.6578 36.8966 67.107 36.3165 67.8966 36.2417C68.7306 36.163 69.3548 36.6692 69.4437 37.6303C69.7122 40.5308 69.4512 43.4095 68.8942 46.2541C67.1836 54.9821 62.809 62.0599 55.7111 67.4249C54.5129 68.3311 53.7139 68.3908 53.1115 67.6164C52.5157 66.8496 52.8023 66.0647 53.9777 65.1756C62.3769 58.821 66.3334 50.2229 66.6493 39.819Z" fill="#144438"/>
<path d="M50.5072 76.461C50.1223 76.0629 49.5965 75.7264 49.3856 75.2506C49.1076 74.6231 49.3856 74.0089 50.0221 73.6458C50.1762 73.5586 50.3549 73.5084 50.528 73.462C58.1063 71.4401 63.297 66.5311 66.9159 59.767C67.6791 58.3405 68.2502 56.8087 68.8696 55.3082C69.2687 54.3414 69.9023 53.9044 70.6995 54.1556C71.5193 54.4144 71.9165 55.1708 71.5628 56.1357C67.9845 65.8865 61.8312 73.0638 51.5748 76.1056C51.3734 76.1653 51.1663 76.207 50.9611 76.2506C50.8731 76.2696 50.7833 76.2734 50.6935 76.2838C50.6311 76.3435 50.5696 76.4023 50.5072 76.461Z" fill="#144438"/>
<path d="M26.3054 7.6651C26.2912 8.29828 25.8941 8.80918 25.1603 8.93999C14.3327 10.8765 8.08482 17.8225 4.65497 27.8103C4.06017 29.5411 3.71122 31.3563 3.24313 33.1308C3.01996 33.9763 2.33815 34.4369 1.57313 34.2701C0.798646 34.1014 0.32677 33.4123 0.49604 32.5582C1.97219 25.1278 4.86207 18.4102 10.465 13.1173C14.3695 9.4291 18.9673 7.07078 24.2912 6.20916C25.5045 6.01389 26.2856 6.53807 26.3054 7.6651Z" fill="#144438"/>
<path d="M-0.322914 18.6965C0.123429 16.6443 0.904526 14.6017 2.05064 12.7078C4.73532 8.26984 8.6238 5.36365 13.5043 3.73614C13.7312 3.66031 13.9648 3.58922 14.2002 3.55605C14.9672 3.44799 15.6272 3.85937 15.8135 4.54089C16.0168 5.28687 15.6603 5.96365 14.8906 6.26697C13.8872 6.66224 12.8423 6.97314 11.8796 7.45087C7.09564 9.8272 3.96273 13.5922 2.56319 18.7771C2.50834 18.9799 2.46578 19.1884 2.39391 19.3856C2.13102 20.1069 1.453 20.505 0.767413 20.3524C0.048726 20.1932 -0.377761 19.5941 -0.322914 18.6965Z" fill="#144438"/>
<path d="M34.1542 10.9931C49.6618 10.9665 62.2899 23.5591 62.3429 39.1024C62.3958 54.5888 49.763 67.2894 34.262 67.333C18.763 67.3766 6.14244 54.7698 6.10935 39.2114C6.07719 23.651 18.6306 11.0196 34.1542 10.9931Z" fill="#144438"/>
<path d="M33.287 46.3792C33.7816 45.7261 34.3745 45.1944 34.8559 44.5565C35.7277 43.401 36.3859 42.1583 36.4531 40.673C36.5391 38.7706 35.7192 37.2322 34.4511 35.9156C33.1925 34.6085 31.897 33.3393 30.8445 31.8511C30.0794 30.7705 29.3513 29.6672 29.1073 28.3269C28.9125 27.2549 29.3768 26.4435 30.4085 26.0681C31.809 25.5582 33.2691 25.3383 34.7443 25.2236C35.9292 25.1316 37.115 25.1553 38.2999 25.2814C38.6413 25.3174 38.8011 25.4444 38.9183 25.762C39.7297 27.9677 41.6966 29.2938 44.0276 29.216C44.6555 29.1952 45.2683 29.0634 45.8348 28.7904C46.1326 28.6464 46.3246 28.6928 46.5572 28.9212C48.2821 30.6141 49.4575 32.6417 50.2225 34.9203C50.9753 37.1649 51.3422 39.4768 51.4632 41.8389C51.5483 43.5062 51.4519 45.1479 51.0027 46.7565C50.6774 47.9224 50.1318 48.9584 49.1814 49.7613C47.6911 51.0219 44.3766 50.8551 43.2503 48.4371C42.7974 47.4636 42.5335 46.4456 42.3974 45.3896C42.2035 43.8787 42.2669 42.3763 42.6243 40.892C42.6952 40.5972 42.7936 40.3043 42.9184 40.0285C43.0565 39.7242 43.2295 39.3905 43.6078 39.3744C43.986 39.3574 44.1808 39.6721 44.352 39.965C44.5723 40.3422 44.7217 40.7526 44.8664 41.164C45.2797 42.3422 45.7194 43.511 46.2348 44.6484C46.4929 45.2181 46.7596 45.7859 47.1719 46.2617C47.5341 46.6797 47.7866 46.6228 47.9738 46.0958C48.2206 45.4001 48.2216 44.6636 48.2452 43.9441C48.3038 42.1299 48.3105 40.3109 47.9691 38.5194C47.4329 35.7052 45.9397 33.4483 43.7856 31.6208C41.4564 29.6435 38.7727 28.4037 35.7552 27.9127C34.7462 27.7487 33.7372 27.7108 32.7537 28.0738C31.8743 28.399 31.7967 28.7032 32.4596 29.3554C33.0591 29.9449 33.6861 30.507 34.296 31.0862C35.7022 32.4217 36.9155 33.9128 37.9443 35.5602C39.6436 38.2806 39.4848 40.8124 37.4034 43.2493C36.3159 44.5223 34.9845 45.4949 33.5187 46.2892C33.4459 46.3271 33.3636 46.3489 33.287 46.3792Z" fill="white"/>
<path d="M30.7613 55.3698C28.8577 54.3528 27.1338 53.1329 26.2959 51.0248C25.6898 49.4987 26.0047 48.0589 26.8255 46.6968C27.8912 44.928 29.2378 43.3991 30.7887 42.0455C31.0506 41.8171 31.2993 41.5725 31.5386 41.3195C31.9537 40.8815 31.8866 40.6228 31.3163 40.3896C30.6837 40.1318 30.0189 40.0455 29.3532 40.1365C25.4307 40.6702 22.2013 42.3944 19.9573 45.746C18.988 47.1935 18.5417 48.8314 18.4793 50.5575C18.431 51.8902 18.3648 53.2286 18.5455 54.5594C18.5767 54.7878 18.6221 55.0201 18.7043 55.2343C18.832 55.5679 19.0485 55.6097 19.2982 55.3594C19.5355 55.1215 19.7058 54.8324 19.8552 54.5319C20.38 53.4769 20.7989 52.3793 21.1895 51.2693C21.3389 50.8447 21.4751 50.4115 21.7342 50.038C22.1011 49.5082 22.4841 49.5309 22.7838 50.0968C23.1176 50.7262 23.2245 51.42 23.2822 52.1139C23.4202 53.766 23.3209 55.3916 22.6316 56.9367C22.0547 58.2277 21.0041 58.8021 19.6594 58.8305C18.4339 58.8571 17.4996 58.2732 16.8518 57.2277C16.2078 56.1879 15.9251 55.0277 15.8542 53.8343C15.6707 50.7831 16.0546 47.8058 17.2291 44.9622C17.8343 43.4977 18.6892 42.1953 19.8363 41.0891C20.0481 40.8844 20.2211 40.8654 20.4869 40.9678C22.8368 41.8749 25.2103 40.8247 26.1304 38.4739C26.2269 38.2265 26.3555 38.0976 26.6241 38.073C28.7943 37.8739 30.939 37.9782 33.0213 38.673C34.0587 39.019 34.4124 39.7706 34.1344 40.8436C33.9462 41.5707 33.5953 42.2199 33.1887 42.8418C32.3584 44.1119 31.3523 45.2314 30.2724 46.2911C29.6605 46.8911 29.1007 47.5366 28.7054 48.311C27.8912 49.9063 27.9763 51.4665 28.8558 53.0058C29.3645 53.8931 30.035 54.6476 30.7613 55.3698Z" fill="white"/>
<path d="M43.7695 29.0151C40.9874 28.998 38.7822 26.7601 38.803 23.9762C38.8238 21.2671 41.098 19.0178 43.8026 19.033C46.579 19.0491 48.7757 21.3136 48.7558 24.1411C48.7369 26.8425 46.4967 29.0312 43.7695 29.0151Z" fill="white"/>
<path d="M22.1465 32.9507C24.416 32.9526 26.2099 34.7744 26.2014 37.0692C26.1938 39.2995 24.3659 41.1289 22.1228 41.1498C19.9157 41.1706 18.0055 39.2294 18.0197 36.9772C18.0329 34.7554 19.8854 32.9478 22.1465 32.9507Z" fill="white"/>
</svg>
