<svg width="230" height="80" viewBox="0 0 230 80" fill="none" xmlns="http://www.w3.org/2000/svg">
<path d="M47.7497 71.4364C47.5634 71.6335 47.2693 72.2032 46.8239 72.3729C44.7483 73.1606 42.6395 73.8658 40.5231 74.5378C39.7127 74.7957 38.9685 74.3028 38.7765 73.5388C38.5959 72.8222 38.9959 72.1084 39.7666 71.8411C41.8092 71.1321 43.8508 70.424 45.9038 69.7473C46.8882 69.4221 47.7781 70.0932 47.7497 71.4364Z" fill="#144438"/>
<path d="M66.6493 39.819C66.6531 39.1573 66.6587 38.4948 66.6587 37.8332C66.6578 36.8966 67.107 36.3165 67.8966 36.2417C68.7306 36.163 69.3548 36.6692 69.4437 37.6303C69.7122 40.5308 69.4512 43.4095 68.8942 46.2541C67.1836 54.9821 62.809 62.0599 55.7111 67.4249C54.5129 68.3311 53.7139 68.3908 53.1115 67.6164C52.5157 66.8496 52.8023 66.0647 53.9777 65.1756C62.3769 58.821 66.3334 50.2229 66.6493 39.819Z" fill="#144438"/>
<path d="M50.5072 76.461C50.1223 76.0629 49.5965 75.7264 49.3856 75.2506C49.1076 74.6231 49.3856 74.0089 50.0221 73.6458C50.1762 73.5586 50.3549 73.5084 50.528 73.462C58.1063 71.4401 63.297 66.5311 66.9159 59.767C67.6791 58.3405 68.2502 56.8087 68.8696 55.3082C69.2687 54.3414 69.9023 53.9044 70.6995 54.1556C71.5193 54.4144 71.9165 55.1708 71.5628 56.1357C67.9845 65.8865 61.8312 73.0638 51.5748 76.1056C51.3734 76.1653 51.1663 76.207 50.9611 76.2506C50.8731 76.2696 50.7833 76.2734 50.6935 76.2838C50.6311 76.3435 50.5696 76.4023 50.5072 76.461Z" fill="#144438"/>
<path d="M26.3054 7.6651C26.2912 8.29828 25.8941 8.80918 25.1603 8.93999C14.3327 10.8765 8.08482 17.8225 4.65497 27.8103C4.06017 29.5411 3.71122 31.3563 3.24313 33.1308C3.01996 33.9763 2.33815 34.4369 1.57313 34.2701C0.798646 34.1014 0.32677 33.4123 0.49604 32.5582C1.97219 25.1278 4.86207 18.4102 10.465 13.1173C14.3695 9.4291 18.9673 7.07078 24.2912 6.20916C25.5045 6.01389 26.2856 6.53807 26.3054 7.6651Z" fill="#144438"/>
<path d="M-0.322914 18.6965C0.123429 16.6443 0.904526 14.6017 2.05064 12.7078C4.73532 8.26984 8.6238 5.36365 13.5043 3.73614C13.7312 3.66031 13.9648 3.58922 14.2002 3.55605C14.9672 3.44799 15.6272 3.85937 15.8135 4.54089C16.0168 5.28687 15.6603 5.96365 14.8906 6.26697C13.8872 6.66224 12.8423 6.97314 11.8796 7.45087C7.09564 9.8272 3.96273 13.5922 2.56319 18.7771C2.50834 18.9799 2.46578 19.1884 2.39391 19.3856C2.13102 20.1069 1.453 20.505 0.767413 20.3524C0.048726 20.1932 -0.377761 19.5941 -0.322914 18.6965Z" fill="#144438"/>
<path d="M34.1542 10.9931C49.6618 10.9665 62.2899 23.5591 62.3429 39.1024C62.3958 54.5888 49.763 67.2894 34.262 67.333C18.763 67.3766 6.14244 54.7698 6.10935 39.2114C6.07719 23.651 18.6306 11.0196 34.1542 10.9931Z" fill="#144438"/>
<path d="M33.287 46.3792C33.7816 45.7261 34.3745 45.1944 34.8559 44.5565C35.7277 43.401 36.3859 42.1583 36.4531 40.673C36.5391 38.7706 35.7192 37.2322 34.4511 35.9156C33.1925 34.6085 31.897 33.3393 30.8445 31.8511C30.0794 30.7705 29.3513 29.6672 29.1073 28.3269C28.9125 27.2549 29.3768 26.4435 30.4085 26.0681C31.809 25.5582 33.2691 25.3383 34.7443 25.2236C35.9292 25.1316 37.115 25.1553 38.2999 25.2814C38.6413 25.3174 38.8011 25.4444 38.9183 25.762C39.7297 27.9677 41.6966 29.2938 44.0276 29.216C44.6555 29.1952 45.2683 29.0634 45.8348 28.7904C46.1326 28.6464 46.3246 28.6928 46.5572 28.9212C48.2821 30.6141 49.4575 32.6417 50.2225 34.9203C50.9753 37.1649 51.3422 39.4768 51.4632 41.8389C51.5483 43.5062 51.4519 45.1479 51.0027 46.7565C50.6774 47.9224 50.1318 48.9584 49.1814 49.7613C47.6911 51.0219 44.3766 50.8551 43.2503 48.4371C42.7974 47.4636 42.5335 46.4456 42.3974 45.3896C42.2035 43.8787 42.2669 42.3763 42.6243 40.892C42.6952 40.5972 42.7936 40.3043 42.9184 40.0285C43.0565 39.7242 43.2295 39.3905 43.6078 39.3744C43.986 39.3574 44.1808 39.6721 44.352 39.965C44.5723 40.3422 44.7217 40.7526 44.8664 41.164C45.2797 42.3422 45.7194 43.511 46.2348 44.6484C46.4929 45.2181 46.7596 45.7859 47.1719 46.2617C47.5341 46.6797 47.7866 46.6228 47.9738 46.0958C48.2206 45.4001 48.2216 44.6636 48.2452 43.9441C48.3038 42.1299 48.3105 40.3109 47.9691 38.5194C47.4329 35.7052 45.9397 33.4483 43.7856 31.6208C41.4564 29.6435 38.7727 28.4037 35.7552 27.9127C34.7462 27.7487 33.7372 27.7108 32.7537 28.0738C31.8743 28.399 31.7967 28.7032 32.4596 29.3554C33.0591 29.9449 33.6861 30.507 34.296 31.0862C35.7022 32.4217 36.9155 33.9128 37.9443 35.5602C39.6436 38.2806 39.4848 40.8124 37.4034 43.2493C36.3159 44.5223 34.9845 45.4949 33.5187 46.2892C33.4459 46.3271 33.3636 46.3489 33.287 46.3792Z" fill="white"/>
<path d="M30.7613 55.3698C28.8577 54.3528 27.1338 53.1329 26.2959 51.0248C25.6898 49.4987 26.0047 48.0589 26.8255 46.6968C27.8912 44.928 29.2378 43.3991 30.7887 42.0455C31.0506 41.8171 31.2993 41.5725 31.5386 41.3195C31.9537 40.8815 31.8866 40.6228 31.3163 40.3896C30.6837 40.1318 30.0189 40.0455 29.3532 40.1365C25.4307 40.6702 22.2013 42.3944 19.9573 45.746C18.988 47.1935 18.5417 48.8314 18.4793 50.5575C18.431 51.8902 18.3648 53.2286 18.5455 54.5594C18.5767 54.7878 18.6221 55.0201 18.7043 55.2343C18.832 55.5679 19.0485 55.6097 19.2982 55.3594C19.5355 55.1215 19.7058 54.8324 19.8552 54.5319C20.38 53.4769 20.7989 52.3793 21.1895 51.2693C21.3389 50.8447 21.4751 50.4115 21.7342 50.038C22.1011 49.5082 22.4841 49.5309 22.7838 50.0968C23.1176 50.7262 23.2245 51.42 23.2822 52.1139C23.4202 53.766 23.3209 55.3916 22.6316 56.9367C22.0547 58.2277 21.0041 58.8021 19.6594 58.8305C18.4339 58.8571 17.4996 58.2732 16.8518 57.2277C16.2078 56.1879 15.9251 55.0277 15.8542 53.8343C15.6707 50.7831 16.0546 47.8058 17.2291 44.9622C17.8343 43.4977 18.6892 42.1953 19.8363 41.0891C20.0481 40.8844 20.2211 40.8654 20.4869 40.9678C22.8368 41.8749 25.2103 40.8247 26.1304 38.4739C26.2269 38.2265 26.3555 38.0976 26.6241 38.073C28.7943 37.8739 30.939 37.9782 33.0213 38.673C34.0587 39.019 34.4124 39.7706 34.1344 40.8436C33.9462 41.5707 33.5953 42.2199 33.1887 42.8418C32.3584 44.1119 31.3523 45.2314 30.2724 46.2911C29.6605 46.8911 29.1007 47.5366 28.7054 48.311C27.8912 49.9063 27.9763 51.4665 28.8558 53.0058C29.3645 53.8931 30.035 54.6476 30.7613 55.3698Z" fill="white"/>
<path d="M43.7695 29.0151C40.9874 28.998 38.7822 26.7601 38.803 23.9762C38.8238 21.2671 41.098 19.0178 43.8026 19.033C46.579 19.0491 48.7757 21.3136 48.7558 24.1411C48.7369 26.8425 46.4967 29.0312 43.7695 29.0151Z" fill="white"/>
<path d="M22.1465 32.9507C24.416 32.9526 26.2099 34.7744 26.2014 37.0692C26.1938 39.2995 24.3659 41.1289 22.1228 41.1498C19.9157 41.1706 18.0055 39.2294 18.0197 36.9772C18.0329 34.7554 19.8854 32.9478 22.1465 32.9507Z" fill="white"/>
<path d="M96.4287 33.2839C95.7912 33.3641 95.3409 33.3891 94.9043 33.4804C93.6211 33.7517 92.3545 34.135 91.0602 34.3066C90.0999 34.4339 89.0813 34.427 88.1293 34.2526C86.2266 33.9039 85.6349 32.2584 86.8322 30.7291C87.3186 30.1077 87.9173 29.525 88.5741 29.0918C90.5502 27.7895 92.5513 26.5191 94.5981 25.333C96.1419 24.4376 97.766 23.6805 99.3652 22.8848C99.8197 22.6592 100.299 22.4613 100.79 22.3367C102.802 21.826 104.443 22.8779 104.854 24.9123C104.93 25.2915 105 25.6721 105.095 26.1717C105.56 26.0527 105.92 26.0125 106.236 25.8727C109.214 24.5594 112.089 23.0633 114.611 20.9735C115.141 20.5348 115.649 20.0463 116.068 19.5037C116.933 18.38 116.672 17.634 115.288 17.4721C114.217 17.3461 113.083 17.3115 112.033 17.5178C104.887 18.9183 97.9212 20.9112 91.3415 24.0902C88.6836 25.3745 86.0742 26.7599 83.4384 28.0899C82.7885 28.4179 82.1372 28.7638 81.4512 28.9936C80.8027 29.2095 80.1098 29.3714 79.4294 29.4005C77.9674 29.4627 76.7673 28.8995 76.0966 27.5501C75.4023 26.1551 75.6975 24.7988 76.6911 23.6916C77.3854 22.9194 78.239 22.2454 79.1259 21.6987C81.7145 20.1044 84.5235 18.9668 87.4073 18.0284C93.8692 15.9248 100.454 14.3236 107.184 13.3493C109.756 12.977 112.346 12.8427 114.925 13.2455C115.96 13.4074 117.023 13.6357 117.969 14.062C120.731 15.3076 121.493 18.1004 119.773 20.6012C118.427 22.5609 116.593 24.0155 114.495 25.0963C111.902 26.4319 109.268 27.6844 106.649 28.9673C106.223 29.1763 105.794 29.3797 105.356 29.5582C104.206 30.026 103.503 30.8522 103.033 32.012C101.993 34.5765 100.841 37.0967 99.7435 39.639C98.1928 43.229 97.0703 46.9519 96.207 50.7647C95.7815 52.6428 95.2577 54.5083 94.6175 56.3227C94.3001 57.2223 93.7251 58.0914 93.0751 58.8C92.0483 59.921 90.7013 60.4026 89.1991 59.8311C87.7177 59.2664 87.0068 58.0402 86.8752 56.5317C86.8045 55.7124 86.896 54.853 87.0719 54.0447C87.5099 52.0394 88.2997 50.1489 89.31 48.3705C91.8695 43.8615 93.89 39.0965 96.0545 34.3993C96.1834 34.1129 96.2555 33.8029 96.4287 33.2839ZM90.5489 31.4252C91.1531 31.3297 91.548 31.302 91.9235 31.1996C93.0834 30.8855 94.2433 30.563 95.3894 30.2018C96.1529 29.9624 96.911 29.6911 97.6385 29.3617C98.8219 28.8247 99.1767 27.7508 99.4511 26.5523C98.7014 26.3198 98.1914 26.6547 97.6787 26.8817C94.7367 28.1812 91.3498 30.2876 90.5489 31.4252Z" fill="#FF9A30"/>
<path d="M117.107 46.6889C116.284 47.129 115.813 47.3588 115.367 47.6259C114.154 48.3511 112.968 49.122 111.742 49.8209C110.328 50.6263 108.812 51.1785 107.192 51.4069C105.479 51.6491 103.83 51.4373 102.297 50.6111C99.7767 49.2534 98.9314 46.1215 100.231 43.5723C101.01 42.0457 102.119 40.7794 103.527 39.7774C103.534 39.7733 103.541 39.7677 103.546 39.7636C104.757 38.9041 106.153 38.3409 107.619 38.0959C109.113 37.8468 111.183 37.3956 112.382 37.1271C112.524 37.0953 112.504 36.8877 112.357 36.8849C111.107 36.86 106.333 36.8296 105.524 35.2145C104.075 32.3289 107.231 28.7971 110.48 30.1257C115.753 32.2805 116.83 32.4743 122.253 34.0381C122.835 34.2056 123.428 34.3412 123.995 34.5488C125.121 34.9598 125.713 35.757 125.75 36.9874C125.793 38.3948 125.466 39.6086 124.438 40.6576C117.328 45.9624 123.378 52.9417 120.069 54.6689C118.672 55.4273 116.977 54.8474 116.597 53.4621C116.146 51.8179 117.118 50.2499 117.143 48.6196C117.136 48.102 117.124 47.583 117.107 46.6889ZM118.943 39.0979C116.61 39.347 114.266 39.5449 111.949 39.9117C110.084 40.2065 108.31 40.9012 106.699 41.8894C105.737 42.4789 104.779 43.146 104.021 43.9888C101.406 46.9007 109.268 46.0371 110.468 45.2842C113.246 44.0054 115.612 42.681 118.154 41.0493C118.602 40.7614 119.02 40.414 119.41 40.0501C120.602 38.9941 119.176 39.073 118.943 39.0979Z" fill="#FF9A30"/>
<path d="M141.69 35.5564C140.683 36.9638 138.721 37.7264 137.965 37.1479C137.137 36.5154 136.112 36.1805 135.099 36.4282C130.124 37.6448 129.568 42.5772 129.794 44.4885C129.881 45.2316 129.894 45.9928 129.855 46.7402C129.806 47.6605 129.57 48.5476 129.021 49.3171C127.631 51.2657 124.954 51.0775 123.849 48.96C123.436 48.1684 123.34 47.3297 123.444 46.4537C123.589 45.2496 124.064 44.1701 124.741 43.1875C125.542 42.0264 126.09 40.749 126.639 39.4591C127.18 38.1831 127.372 36.8919 127.214 35.5218C127.121 34.7218 127.082 33.9136 127.065 33.1095C127.042 32.0203 127.197 30.945 127.754 29.997C128.074 29.4531 128.475 28.9023 128.969 28.523C130.894 27.045 133.512 28.0608 133.943 30.4551C134.064 31.1235 133.935 31.8376 133.895 32.5296C133.87 32.942 133.59 33.3489 133.95 33.8679C134.651 33.926 135.131 33.5302 135.643 33.2604C136.852 32.6237 138.032 31.8999 139.336 31.5069C143.236 30.3263 143.194 33.4513 141.69 35.5564Z" fill="#FF9A30"/>
<path d="M173.022 24.1428C172.078 25.4119 170.691 25.9502 169.138 26.1578C168.037 26.3045 166.919 26.2409 165.827 26.043C162.622 25.4631 153.517 23.5172 149.361 28.9728C145.883 33.5399 143.375 52.5293 143.211 53.2282C143.064 53.8537 142.223 57.4271 138.305 56.8555C134.574 56.3116 134.691 53.105 136.616 50.398C137.858 48.65 140.534 45.2593 141.712 41.7565C143.05 37.7818 146.642 26.6284 139.09 27.5266C136.485 27.283 136.299 23.9214 141.181 24.1068C143.639 23.8785 143.671 23.2072 144.173 21.3112C144.392 20.4822 145.25 16.6016 147.288 16.603C152.214 16.4659 144.913 24.1206 154.764 22.5471C155.693 22.5111 162.502 20.5002 165.284 18.9958C166.47 18.3537 167.789 18.0866 169.144 18.0824C170.381 18.0783 171.52 18.3869 172.476 19.22C173.925 20.4864 174.169 22.5997 173.022 24.1428Z" fill="#FF9A30"/>
<path d="M159.821 47.0474C159.202 46.7374 158.814 47.1014 158.403 47.2896C157.27 47.8113 156.176 48.43 155.014 48.8742C154.024 49.2534 152.977 49.5801 151.928 49.6922C149.126 49.9939 147.246 48.5089 146.725 45.7312C146.482 44.4275 146.573 43.1252 146.811 41.834C147.28 39.293 148.186 36.9071 149.604 34.7509C150.183 33.8707 150.947 33.0915 151.716 32.3608C152.421 31.6895 153.333 31.3809 154.325 31.3657C156.495 31.3311 158.064 33.1192 157.622 35.238C157.468 35.9729 157.106 36.6953 156.704 37.3375C156.267 38.035 155.684 38.6467 155.141 39.2751C154.121 40.45 153.248 41.7164 152.655 43.1598C152.472 43.6041 152.277 44.0982 152.616 44.5147C153.031 45.0227 153.611 44.8344 154.102 44.6351C154.871 44.3224 155.639 43.9875 156.357 43.5736C160.141 41.3939 163.586 38.7879 166.448 35.4581C167.106 34.6927 167.77 33.9274 168.493 33.2244C168.91 32.8189 169.418 32.466 169.945 32.2238C170.698 31.8792 171.473 31.9746 172.107 32.5504C172.741 33.1247 172.908 33.8707 172.655 34.6665C172.513 35.1107 172.272 35.5342 172.013 35.9259C171.753 36.3203 171.428 36.6746 171.11 37.0275C170.156 38.0835 167.308 40.5663 165.359 43.6608C162.193 48.6888 159.914 54.143 159.372 58.1357C158.665 63.3436 158.378 67 155.775 67C154.612 67 152.465 65.8984 153.643 61.1998C154.515 57.7233 158.491 50.7315 159.348 48.8175C159.59 48.286 159.947 47.7781 159.821 47.0474Z" fill="#FF9A30"/>
<path d="M195.567 63.4349C207.298 62.1644 219.028 60.8953 230.759 59.6248C230.767 59.6816 230.775 59.7397 230.782 59.7965C223.77 61.1527 216.758 62.5104 209.746 63.8653C205.534 64.6791 201.321 65.4984 197.103 66.2886C196.447 66.4118 195.758 66.4727 195.096 66.4201C193.699 66.3094 192.614 65.652 192.042 64.3179C191.476 63.0003 191.781 61.7299 192.755 60.8358C194.014 59.6802 195.474 58.7419 196.868 57.7385C197.612 57.2043 198.401 56.731 199.127 56.0971C188.92 56.5455 179.049 58.6727 169.286 62.0067C168.55 59.5903 167.846 57.2832 167.077 54.7616C169.796 54.1748 172.364 53.5769 174.95 53.0718C183.541 51.3958 192.22 50.7938 200.963 51.0664C201.707 51.0899 202.471 51.2546 203.178 51.4941C204.644 51.9895 205.639 52.9943 205.807 54.5762C205.974 56.14 205.297 57.4091 203.961 58.1911C201.565 59.593 199.108 60.8926 196.681 62.2419C196.253 62.48 195.846 62.7554 195.43 63.0128C195.478 63.154 195.523 63.2951 195.567 63.4349Z" fill="#FF9A30"/>
<path d="M185.922 47.327C185.269 47.4681 184.589 47.5249 183.938 47.5249C178.634 47.5249 175.401 43.3052 174.239 39.7082C173.303 36.8476 173.586 34.2983 174.919 33.3365C175.458 32.9407 176.054 32.7414 176.678 32.7414C179.911 32.7414 183.426 37.5839 183.455 37.6406C183.597 37.8385 183.852 37.8676 184.022 37.7541C184.22 37.6129 184.277 37.386 184.136 37.188C182.632 34.7813 181.838 32.459 181.81 30.5326C183.795 30.1921 185.553 28.5784 186.206 26.3696C186.263 26.1149 186.348 25.8312 186.377 25.5766C186.49 25.5766 186.604 25.5489 186.718 25.5489C190.319 25.5489 192.333 29.9098 192.729 34.243C193.267 40.021 191.112 46.3637 185.922 47.327ZM185.639 24.8403C185.498 24.868 185.355 24.8971 185.214 24.9538C183.342 25.4631 182.01 26.5675 181.385 28.1535C181.215 28.6628 181.073 29.2012 181.016 29.7672C180.705 29.7672 180.364 29.7105 180.052 29.6261C179.003 29.3147 178.152 28.5493 177.67 27.4449C177.16 26.3405 177.074 25.0382 177.472 23.7913C178.095 21.6392 179.881 20.1667 181.81 20.1667C182.151 20.1667 182.491 20.1957 182.803 20.3078C184.647 20.8476 185.753 22.745 185.639 24.8403ZM185.497 25.7191C185.469 25.8603 185.44 26.0028 185.412 26.144C184.845 27.9847 183.455 29.3437 181.867 29.6842C181.924 29.2593 182.009 28.8344 182.179 28.4663C182.689 27.1073 183.795 26.1717 185.412 25.7468C185.44 25.7468 185.469 25.7191 185.497 25.7191Z" fill="#144438"/>
<path d="M203.846 42.371C202.342 44.2407 200.754 45.1749 199.081 45.1749C198.146 45.1749 197.209 44.8635 196.274 44.2975C193.013 42.2866 193.154 38.4641 193.864 35.6311C195.338 29.5984 200.556 22.972 204.044 22.7173C204.044 22.7173 204.072 22.7173 204.157 22.7173C204.867 22.7173 207.305 23.001 208.155 26.7959C208.949 30.5326 207.248 38.1513 203.846 42.371ZM201.917 32.43C201.944 32.203 201.775 31.9774 201.548 31.9484C201.321 31.9193 201.123 32.0895 201.095 32.3165L200.556 37.0178C200.528 37.2448 200.669 37.4427 200.897 37.4704C200.924 37.4704 200.954 37.4704 200.954 37.4704C201.152 37.4704 201.351 37.3292 201.379 37.1022L201.917 32.43Z" fill="#144438"/>
<path d="M227.495 43.2775C226.305 44.7791 224.262 45.77 222.278 45.77C221.456 45.77 220.718 45.5998 220.123 45.2607C217.088 43.5612 215.869 38.5208 215.727 37.9534C215.7 37.869 215.7 37.8122 215.7 37.8122C215.671 37.642 215.501 37.5008 215.302 37.5008C215.273 37.5008 215.245 37.5008 215.217 37.5285C214.99 37.5562 214.849 37.7831 214.906 38.0101C214.906 38.0101 214.906 38.0378 214.906 38.1236C215.019 38.5485 215.756 42.3156 214.396 44.1563C213.942 44.7514 213.347 45.0905 212.523 45.1472C212.439 45.1749 212.325 45.1749 212.239 45.1749C211.361 45.1749 210.594 44.75 209.971 43.9003C208.099 41.3801 207.873 35.4885 209.489 30.2212C210.992 25.2929 216.692 22.7159 221.541 22.7159C223.526 22.7159 225.113 23.1685 226.05 23.9615C227.411 25.095 227.922 26.9356 227.411 28.7196C226.617 31.6079 223.525 33.7613 219.159 34.4409C218.676 34.4976 218.394 34.5544 218.394 34.5544C218.166 34.6111 218.025 34.809 218.053 35.036C218.082 35.2629 218.28 35.4041 218.506 35.3764C218.761 35.3488 219.016 35.3197 219.272 35.292C219.754 35.2353 220.492 35.1508 221.37 35.1508C224.149 35.1508 227.637 35.8027 228.403 38.9457C228.885 40.9552 228.176 42.4 227.495 43.2775ZM217.286 28.1258C217.315 27.8989 217.145 27.701 216.918 27.6733C216.69 27.6456 216.492 27.8145 216.465 28.0414L215.898 32.7137C215.87 32.9407 216.039 33.1386 216.266 33.1662C216.294 33.1662 216.294 33.1662 216.323 33.1662C216.521 33.1662 216.692 33.0251 216.72 32.8258L217.286 28.1258Z" fill="#144438"/>
</svg>
